<svg xmlns="http://www.w3.org/2000/svg" width="28" height="61" viewBox="0 0 28 61" fill="none">
                    <path
                        d="M8.53252 20.857C9.48053 9.95446 18.3815 3.79218 24.1749 0C17.5389 7.11033 12.726 14.2923 11.8507 20.857C10.9026 27.9673 14.0627 36.9737 15.6428 41.2399C13.273 38.8698 7.58451 31.7595 8.53252 20.857Z"
                        fill="white" />
                    <path
                        d="M18.9609 8.05836C17.0648 9.63844 13.1899 16.5908 12.4314 22.279C11.4834 29.3894 17.1716 38.8698 16.6976 45.0321C16.2977 50.231 15.2756 56.8826 12.4314 60.2008C17.6457 55.4606 19.9484 50.2181 20.4898 45.0321C21.331 36.9737 18.4869 35.0776 17.0648 28.4413C15.8689 22.86 16.1168 11.8505 18.9609 8.05836Z"
                        fill="#fff" />
                    <path
                        d="M24.6491 22.3315C23.8618 20.3633 21.489 20.2774 19.9089 20.4354C20.857 20.9094 22.7531 21.3834 21.805 24.7016C20.779 28.2927 6.32029 33.234 0 34.6561C2.2121 34.34 8.05837 33.234 14.6947 31.3379C22.6546 29.0636 25.5972 24.7016 24.6491 22.3315Z"
                        fill="white" />
                    <path
                        d="M27.4933 27.0717C26.706 25.1035 24.3332 25.0177 22.7531 25.1757C23.7012 25.6497 25.5973 26.1237 24.6492 29.4418C23.6232 33.033 9.16449 37.9742 2.8442 39.3963C5.0563 39.0803 10.9026 37.9742 17.5389 36.0781C25.4988 33.8039 28.4414 29.4418 27.4933 27.0717Z"
                        fill="white" />
                </svg>