<svg xmlns="http://www.w3.org/2000/svg" width="26" height="25" viewBox="0 0 26 25" fill="none">
<path id="Vector" d="M4.15385 9.61268V19.3434M8.57692 9.61268V19.3434M13 9.61268V19.3434M17.4231 9.61268V19.3434M21.8462 9.61268V19.3434M23.4563 9.61268H2.54395C1.55318 9.61268 1.12857 8.53345 1.90703 8.02037L12.3632 1.17345C12.5562 1.05988 12.7761 1 13.0001 1C13.2241 1 13.444 1.05988 13.637 1.17345L24.0932 8.02037C24.8716 8.53345 24.447 9.61268 23.4563 9.61268ZM2.38462 19.3434H23.6154C24.1039 19.3434 24.5 19.7395 24.5 20.2281V22.8819C24.5 23.3705 24.1039 23.7665 23.6154 23.7665H2.38462C1.89606 23.7665 1.5 23.3705 1.5 22.8819V20.2281C1.5 19.7395 1.89606 19.3434 2.38462 19.3434Z" stroke="#E8F7FB" stroke-width="2" stroke-linecap="round" stroke-linejoin="round"/>
</svg>