<svg xmlns="http://www.w3.org/2000/svg" width="26" height="25" viewBox="0 0 26 25" fill="none">
<path id="Vector" d="M7.72134 7.22134L1.5 1M24.1101 16.6955L17.1955 23.6101C16.9456 23.8598 16.6067 24 16.2535 24C15.9002 24 15.5613 23.8598 15.3114 23.6101L3.73968 12.0384C3.67073 11.9725 3.61739 11.892 3.58356 11.8028C3.54973 11.7136 3.53626 11.618 3.54415 11.5229L4.59289 4.69725C4.60512 4.54104 4.67272 4.39432 4.78352 4.28352C4.89432 4.17272 5.04104 4.10512 5.19725 4.09289L12.0229 3.04415C12.118 3.03626 12.2136 3.04973 12.3028 3.08356C12.392 3.11739 12.4725 3.17073 12.5384 3.23968L24.1101 14.8114C24.3598 15.0613 24.5 15.4002 24.5 15.7535C24.5 16.1067 24.3598 16.4456 24.1101 16.6955Z" stroke="#E8F7FB" stroke-width="2" stroke-linecap="round" stroke-linejoin="round"/>
</svg>