<svg xmlns="http://www.w3.org/2000/svg" width="26" height="25" viewBox="0 0 26 25" fill="none">
<path id="Vector" d="M21.8462 13.3817V9.84326C21.8462 9.37403 21.6598 8.92402 21.328 8.59222C20.9962 8.26043 20.5462 8.07403 20.0769 8.07403H3.26923C2.8 8.07403 2.34999 8.26043 2.0182 8.59222C1.6864 8.92402 1.5 9.37403 1.5 9.84326V22.2279C1.5 22.6971 1.6864 23.1471 2.0182 23.4789C2.34999 23.8107 2.8 23.9971 3.26923 23.9971H20.0769C20.5462 23.9971 20.9962 23.8107 21.328 23.4789C21.6598 23.1471 21.8462 22.6971 21.8462 22.2279V17.8048M7.40923 3.65095L17.4408 1.03249C17.5535 1.00073 17.6715 0.992136 17.7876 1.00723C17.9038 1.02233 18.0156 1.0608 18.1165 1.12032C18.2174 1.17985 18.3051 1.25919 18.3745 1.35356C18.4438 1.44793 18.4933 1.55538 18.52 1.66941L19.0154 3.65095M19.1923 13.3817H23.6154C24.1039 13.3817 24.5 13.7778 24.5 14.2663V16.9202C24.5 17.4087 24.1039 17.8048 23.6154 17.8048H19.1923C18.7037 17.8048 18.3077 17.4087 18.3077 16.9202V14.2663C18.3077 13.7778 18.7037 13.3817 19.1923 13.3817Z" stroke="#E8F7FB" stroke-width="2" stroke-linecap="round" stroke-linejoin="round"/>
</svg>